<svg id="Layer_1" data-name="Layer 1" xmlns="http://www.w3.org/2000/svg" viewBox="0 0 275.68 271"><defs><style>.cls-1{fill:#fff5ee;}.cls-1,.cls-10,.cls-11{stroke:#d55e00;}.cls-12,.cls-18,.cls-2,.cls-21,.cls-25,.cls-28,.cls-31,.cls-9{isolation:isolate;font-size:14px;font-family:ArialMT, Arial;}.cls-3{letter-spacing:-0.11em;}.cls-4{fill:#f2edfb;}.cls-19,.cls-20,.cls-4{stroke:#6f41cf;}.cls-10,.cls-16,.cls-19,.cls-23,.cls-26,.cls-29,.cls-5{fill:none;}.cls-5,.cls-6{stroke:#666;}.cls-6{fill:#666;}.cls-7{fill:#ecfffa;}.cls-23,.cls-24,.cls-7{stroke:#009e73;}.cls-8{fill:#686868;stroke:silver;}.cls-9{fill:#fff;}.cls-11,.cls-12{fill:#d55e00;}.cls-13{fill:#edf8ff;}.cls-13,.cls-16,.cls-17{stroke:#0072b2;}.cls-14{fill:#fdfbe6;}.cls-14,.cls-26,.cls-27{stroke:#aea30e;}.cls-15{letter-spacing:-0.04em;}.cls-17,.cls-18{fill:#0072b2;}.cls-20,.cls-21{fill:#6f41cf;}.cls-22{fill:#f7ebf2;}.cls-22,.cls-29,.cls-30{stroke:#a43f77;}.cls-24,.cls-25{fill:#009e73;}.cls-27,.cls-28{fill:#aea30e;}.cls-30,.cls-31{fill:#a43f77;}</style></defs><g id="node1"><path class="cls-1" d="M16.27,40.5H88.39c6,0,12-6,12-12v-12c0-6-6-12-12-12H16.27c-6,0-12,6-12,12v12c0,6,6,12,12,12" transform="translate(-3.66 -4)"/><text class="cls-2" transform="translate(9.38 22.7)"><tspan class="cls-3">T</tspan><tspan x="7" y="0">emperature</tspan></text></g><g id="node3"><path class="cls-4" d="M122.61,94.5h39.44c6,0,12-6,12-12v-12c0-6-6-12-12-12H122.61c-6,0-12,6-12,12v12c0,6,6,12,12,12" transform="translate(-3.66 -4)"/><text class="cls-2" transform="translate(114.94 76.7)">Climate</text></g><g id="edge7"><path class="cls-5" d="M98.23,40.54c4.13,3,8.77,6.55,14.28,11" transform="translate(-3.66 -4)"/><polygon class="cls-6" points="111.45 45.17 116.95 54.22 107 50.57 111.45 45.17"/></g><g id="node4"><path class="cls-7" d="M16.16,184.5H52.51c6,0,12-6,12-12v-12c0-6-6-12-12-12H16.16c-6,0-12,6-12,12v12c0,6,6,12,12,12" transform="translate(-3.66 -4)"/><text class="cls-2" transform="translate(8.49 166.7)">Energy</text></g><g id="edge13"><path class="cls-5" d="M41.64,40.76c-21,36.61-22.69,48.05-13,97.49" transform="translate(-3.66 -4)"/><polygon class="cls-6" points="28.41 133.81 26.93 144.3 21.55 135.18 28.41 133.81"/></g><g id="node7"><path class="cls-8" d="M117.55,184.5h49.56c6,0,12-6,12-12v-12c0-6-6-12-12-12H117.55c-6,0-12,6-12,12v12c0,6,6,12,12,12" transform="translate(-3.66 -4)"/><text class="cls-9" transform="translate(109.88 166.7)">Richness</text></g><path class="cls-10" d="M60.47,40.65c12.8,27.9,20.93,40.45,63.08,99.55" transform="translate(-3.66 -4)"/><polygon class="cls-11" points="122.81 134.28 125.78 144.45 117.12 138.34 122.81 134.28"/><text class="cls-12" transform="translate(61.08 71.84)">a</text><g id="node2"><path class="cls-13" d="M197.83,40.5h69c6,0,12-6,12-12v-12c0-6-6-12-12-12h-69c-6,0-12,6-12,12v12c0,6,6,12,12,12" transform="translate(-3.66 -4)"/><text class="cls-2" transform="translate(190.15 22.7)">Precipitation</text></g><g id="edge8"><path class="cls-5" d="M186.63,40.64c-4.24,3-9,6.7-14.71,11.3" transform="translate(-3.66 -4)"/><polygon class="cls-6" points="170.47 50.66 160.51 54.28 166.04 45.24 170.47 50.66"/></g><g id="node5"><path class="cls-14" d="M235.33,184.5h30c6,0,12-6,12-12v-12c0-6-6-12-12-12h-30c-6,0-12,6-12,12v12c0,6,6,12,12,12" transform="translate(-3.66 -4)"/><text class="cls-2" transform="translate(227.93 166.7)"><tspan class="cls-15">W</tspan><tspan x="12.69" y="0">ater</tspan></text></g><g id="edge14"><path class="cls-5" d="M242.88,40.53c21.16,36.92,22.92,48.3,13.23,97.72" transform="translate(-3.66 -4)"/><polygon class="cls-6" points="255.83 135.19 250.44 144.3 248.97 133.81 255.83 135.19"/></g><path class="cls-16" d="M224.36,40.82C211.82,68.89,203.69,81.43,161.51,140" transform="translate(-3.66 -4)"/><polygon class="cls-17" points="160.65 138.05 151.96 144.12 154.97 133.96 160.65 138.05"/><text class="cls-18" transform="translate(209.3 73.29)">b</text><g id="edge9"><path class="cls-5" d="M110.37,90.92C73.14,108.17,62,116.41,48.78,139.08" transform="translate(-3.66 -4)"/><polygon class="cls-6" points="48.02 137.06 40.12 144.12 41.9 133.68 48.02 137.06"/></g><g id="edge10"><path class="cls-5" d="M174.33,91c37.27,17.37,48.43,25.62,61.59,48.19" transform="translate(-3.66 -4)"/><polygon class="cls-6" points="235.47 133.76 237.25 144.2 229.34 137.15 235.47 133.76"/></g><path class="cls-19" d="M142.84,94.89c.19,10.23.15,20-.14,43.4" transform="translate(-3.66 -4)"/><polygon class="cls-20" points="142.54 134.43 138.91 144.38 135.54 134.34 142.54 134.43"/><text class="cls-21" transform="translate(130.23 113.25)">c</text><g id="node6"><path class="cls-22" d="M102.77,274.5H181.9c6,0,12-6,12-12v-12c0-6-6-12-12-12H102.77c-6,0-12,6-12,12v12c0,6,6,12,12,12" transform="translate(-3.66 -4)"/><text class="cls-2" transform="translate(95.09 256.7)">Heterogeneity</text></g><g id="edge11"><path class="cls-5" d="M44.47,184.78c14.88,26.46,23.62,39.37,38.22,48.72" transform="translate(-3.66 -4)"/><polygon class="cls-6" points="80.79 226.47 87.83 234.39 77.39 232.59 80.79 226.47"/></g><g id="edge4"><path class="cls-23" d="M64.74,173.4c8.06.8,16.82.49,30.43-.93" transform="translate(-3.66 -4)"/><polygon class="cls-24" points="91.42 164.95 101.75 167.3 92.21 171.91 91.42 164.95"/><text class="cls-25" transform="translate(73.83 165.17)">d</text></g><g id="edge12"><path class="cls-5" d="M240.28,184.72c-14.84,26.52-23.54,39.38-38.34,48.77" transform="translate(-3.66 -4)"/><polygon class="cls-6" points="199.81 232.64 189.36 234.41 196.43 226.51 199.81 232.64"/></g><g id="edge6"><path class="cls-26" d="M223.07,172.89c-9,1.2-18.32,1-34-.62" transform="translate(-3.66 -4)"/><polygon class="cls-27" points="185.02 171.75 175.47 167.16 185.79 164.79 185.02 171.75"/><text class="cls-28" transform="translate(193.38 165.1)">f</text></g><path class="cls-29" d="M142.46,238.12c0-10.23,0-20,0-43.41" transform="translate(-3.66 -4)"/><polygon class="cls-30" points="135.26 190.63 138.73 180.62 142.26 190.61 135.26 190.63"/><text class="cls-31" transform="translate(129.03 208.36)">e</text></svg>