<svg id="Layer_1" data-name="Layer 1" xmlns="http://www.w3.org/2000/svg" viewBox="0 0 379 307"><defs><style>.cls-1{fill:#fff5ee;}.cls-1,.cls-10,.cls-11,.cls-17,.cls-18,.cls-19,.cls-20,.cls-21,.cls-22,.cls-26,.cls-27,.cls-28,.cls-29,.cls-30,.cls-31,.cls-40,.cls-41{stroke:#d55e00;}.cls-16,.cls-2,.cls-8{isolation:isolate;font-family:ArialMT, Arial;}.cls-16,.cls-2{font-size:14px;}.cls-3{letter-spacing:-0.07em;}.cls-4{letter-spacing:-0.02em;}.cls-5{fill:#f2edfb;stroke:#6f41cf;}.cls-10,.cls-13,.cls-17,.cls-19,.cls-21,.cls-23,.cls-26,.cls-28,.cls-30,.cls-32,.cls-34,.cls-36,.cls-38,.cls-40,.cls-6{fill:none;}.cls-13,.cls-14,.cls-23,.cls-24,.cls-32,.cls-33,.cls-34,.cls-35,.cls-36,.cls-37,.cls-38,.cls-39,.cls-6,.cls-7{stroke:#0072b2;}.cls-6,.cls-7{stroke-width:3.65px;}.cls-14,.cls-24,.cls-33,.cls-35,.cls-37,.cls-39,.cls-7{fill:#0072b2;}.cls-8{font-size:10px;fill:#666;}.cls-9{fill:#ecfffa;stroke:#009e73;}.cls-10,.cls-11{stroke-width:1.5px;}.cls-10,.cls-17,.cls-19,.cls-21,.cls-26,.cls-28,.cls-30,.cls-40{stroke-dasharray:5 2;}.cls-11,.cls-18,.cls-20,.cls-22,.cls-27,.cls-29,.cls-31,.cls-41{fill:#d55e00;}.cls-12{fill:#fdfbe6;stroke:#aea30e;}.cls-13,.cls-14{stroke-width:1.1px;}.cls-15{fill:#686868;stroke:silver;}.cls-16{fill:#fff;}.cls-17,.cls-18{stroke-width:5px;}.cls-19,.cls-20{stroke-width:0.85px;}.cls-23,.cls-24{stroke-width:0.1px;}.cls-25{fill:#e0f2fd;stroke:#659abb;}.cls-26,.cls-27{stroke-width:2.4px;}.cls-28,.cls-29{stroke-width:0.4px;}.cls-30,.cls-31{stroke-width:3.25px;}.cls-32,.cls-33{stroke-width:0.45px;}.cls-34,.cls-35{stroke-width:1.7px;}.cls-36,.cls-37{stroke-width:3.35px;}.cls-38,.cls-39{stroke-width:1.2px;}.cls-40,.cls-41{stroke-width:2.35px;}.cls-42,.cls-43{font-size:11px;}.cls-42{font-family:SymbolMT, Symbol;}.cls-43{font-family:MyriadPro-Regular, Myriad Pro;}</style></defs><g id="node1"><path class="cls-1" d="M18,40.5H48c6,0,12-6,12-12v-12c0-6-6-12-12-12H18c-6,0-12,6-12,12v12c0,6,6,12,12,12" transform="translate(-5.45 -4)"/><text class="cls-2" transform="translate(13.02 22.7)">M<tspan class="cls-3" x="11.66" y="0">A</tspan><tspan class="cls-4" x="19.96" y="0">T</tspan></text></g><g id="node5"><path class="cls-5" d="M164.73,166.5h60.44c6,0,12-6,12-12v-12c0-6-6-12-12-12H164.73c-6,0-12,6-12,12v12c0,6,6,12,12,12" transform="translate(-5.45 -4)"/><text class="cls-2" transform="translate(155.99 148.7)">M<tspan class="cls-3" x="11.66" y="0">A</tspan><tspan x="19.96" y="0">T×MA</tspan><tspan class="cls-4" x="57.69" y="0">P</tspan></text></g><path class="cls-6" d="M56.16,40.55l107.6,83.69" transform="translate(-5.45 -4)"/><polygon class="cls-7" points="160.59 117.58 166.33 126.48 156.29 123.1 160.59 117.58"/><text class="cls-8" transform="matrix(0.79, 0.61, -0.61, 0.79, 70.98, 65.94)">2.20***</text><g id="node6"><path class="cls-9" d="M18,166.5H48c6,0,12-6,12-12v-12c0-6-6-12-12-12H18c-6,0-12,6-12,12v12c0,6,6,12,12,12" transform="translate(-5.45 -4)"/><text class="cls-2" transform="translate(13 148.7)">NP<tspan class="cls-4" x="19.45" y="0">P</tspan></text></g><path class="cls-10" d="M33,40.55V120.4" transform="translate(-5.45 -4)"/><polygon class="cls-11" points="31 116.48 27.5 126.48 24 116.48 31 116.48"/><text class="cls-8" transform="translate(23.72 89.26) rotate(-90)">-0.90***</text><g id="node7"><path class="cls-12" d="M342,166.5h30c6,0,12-6,12-12v-12c0-6-6-12-12-12H342c-6,0-12,6-12,12v12c0,6,6,12,12,12" transform="translate(-5.45 -4)"/><text class="cls-2" transform="translate(337.5 148.7)">PE<tspan class="cls-4" x="18.68" y="0">T</tspan></text></g><path class="cls-13" d="M60,33,320.18,134.2" transform="translate(-5.45 -4)"/><polygon class="cls-14" points="316.23 127.03 324.28 133.91 313.69 133.55 316.23 127.03"/><text class="cls-8" transform="translate(73.81 32.9) rotate(21.2)">0.68***</text><g id="node8"><path class="cls-15" d="M170.17,310.5h49.56c6,0,12-6,12-12v-12c0-6-6-12-12-12H170.17c-6,0-12,6-12,12v12c0,6,6,12,12,12" transform="translate(-5.45 -4)"/><text class="cls-16" transform="translate(160.71 292.7)">Richness</text></g><path class="cls-17" d="M43.83,40.63l135,225" transform="translate(-5.45 -4)"/><polygon class="cls-18" points="177.27 259.62 178.67 270.44 169.77 264.12 177.27 259.62"/><text class="cls-8" transform="translate(103.7 169.91) rotate(60)">-3.02***</text><g id="node2"><path class="cls-1" d="M180,40.5h30c6,0,12-6,12-12v-12c0-6-6-12-12-12H180c-6,0-12,6-12,12v12c0,6,6,12,12,12" transform="translate(-5.45 -4)"/><text class="cls-2" transform="translate(175.5 22.7)">TSE</text></g><path class="cls-19" d="M195,40.55V120.4" transform="translate(-5.45 -4)"/><polygon class="cls-20" points="193 116.48 189.5 126.48 186 116.48 193 116.48"/><text class="cls-8" transform="translate(185.61 73.26) rotate(-90)">-0.50***</text><path class="cls-21" d="M171.74,40.55,64.13,124.24" transform="translate(-5.45 -4)"/><polygon class="cls-22" points="60.71 123.1 50.67 126.48 56.41 117.58 60.71 123.1"/><text class="cls-8" transform="matrix(0.79, -0.61, 0.61, 0.79, 136.31, 55.21)">-0.60***</text><path class="cls-23" d="M218.16,40.55l107.6,83.69" transform="translate(-5.45 -4)"/><polygon class="cls-24" points="322.59 117.58 328.33 126.48 318.29 123.1 322.59 117.58"/><text class="cls-8" transform="matrix(0.79, 0.62, -0.62, 0.79, 241.34, 69.99)">0.05*</text><g id="node3"><path class="cls-25" d="M342,40.5h30c6,0,12-6,12-12v-12c0-6-6-12-12-12H342c-6,0-12,6-12,12v12c0,6,6,12,12,12" transform="translate(-5.45 -4)"/><text class="cls-2" transform="translate(336 22.7)">MA<tspan class="cls-4" x="21" y="0">P</tspan></text></g><path class="cls-13" d="M333.74,40.55,226.13,124.24" transform="translate(-5.45 -4)"/><polygon class="cls-14" points="222.71 123.1 212.67 126.48 218.41 117.58 222.71 123.1"/><text class="cls-8" transform="matrix(0.78, -0.62, 0.62, 0.78, 285.43, 82.46)">0.67***</text><path class="cls-26" d="M329.88,33,69.72,134.2" transform="translate(-5.45 -4)"/><polygon class="cls-27" points="65.31 133.55 54.72 133.91 62.77 127.03 65.31 133.55"/><text class="cls-8" transform="matrix(0.93, -0.36, 0.36, 0.93, 259.17, 49.24)">-1.44***</text><path class="cls-28" d="M357,40.55V120.4" transform="translate(-5.45 -4)"/><polygon class="cls-29" points="355 116.48 351.5 126.48 348 116.48 355 116.48"/><text class="cls-8" transform="translate(361.94 90.04) rotate(-90)">-0.23***</text><path class="cls-30" d="M346.07,40.63l-135,225" transform="translate(-5.45 -4)"/><polygon class="cls-31" points="208.48 263.67 200.33 270.44 202.48 260.07 208.48 263.67"/><text class="cls-8" transform="translate(255.62 168.69) rotate(-60)">-1.97***</text><g id="node4"><path class="cls-25" d="M342,310.5h30c6,0,12-6,12-12v-12c0-6-6-12-12-12H342c-6,0-12,6-12,12v12c0,6,6,12,12,12" transform="translate(-5.45 -4)"/><text class="cls-2" transform="translate(337 292.7)">PSE</text></g><path class="cls-28" d="M336.43,274.26,223.06,173.49" transform="translate(-5.45 -4)"/><polygon class="cls-29" points="215 171.85 209.85 162.59 219.65 166.62 215 171.85"/><text class="cls-8" transform="matrix(0.75, 0.67, -0.67, 0.75, 291.65, 230.65)">-0.24*</text><path class="cls-23" d="M357,274.26V176.85" transform="translate(-5.45 -4)"/><polygon class="cls-24" points="348 172.59 351.5 162.59 355 172.59 348 172.59"/><text class="cls-8" transform="translate(361.55 230.51) rotate(-90)">0.06**</text><path class="cls-32" d="M329.83,292.5H242" transform="translate(-5.45 -4)"/><polygon class="cls-33" points="236.43 292 226.43 288.5 236.43 285 236.43 292"/><text class="cls-8" transform="translate(264.36 285.5)">0.26***</text><path class="cls-34" d="M152.38,148.5H70" transform="translate(-5.45 -4)"/><polygon class="cls-35" points="64.55 148 54.55 144.5 64.55 141 64.55 148"/><text class="cls-8" transform="translate(111.61 140.5)">1.02***</text><path class="cls-36" d="M195,166.74v97.41" transform="translate(-5.45 -4)"/><polygon class="cls-37" points="193 260.41 189.5 270.41 186 260.41 193 260.41"/><text class="cls-8" transform="translate(184.6 222.35) rotate(-90)">2.04***</text><path class="cls-38" d="M53.47,166.74,166.83,267.51" transform="translate(-5.45 -4)"/><polygon class="cls-39" points="164 261.15 169.15 270.41 159.35 266.38 164 261.15"/><text class="cls-8" transform="translate(76.71 202.12) rotate(41.5)">0.74***</text><path class="cls-40" d="M336.43,166.74,223.06,267.51" transform="translate(-5.45 -4)"/><polygon class="cls-41" points="219.65 266.38 209.85 270.41 215 261.15 219.65 266.38"/><text class="cls-8" transform="matrix(0.75, -0.66, 0.66, 0.75, 286.09, 197)">-1.41**</text><text class="cls-42" transform="translate(8.55 284.7)"><tspan xml:space="preserve"> c</tspan></text><text class="cls-43" transform="translate(17.34 281.04) scale(0.58)">2</text><text class="cls-43" transform="translate(20.63 284.7)"><tspan xml:space="preserve"> = 9.11, df = 4, p = 0.058</tspan><tspan x="-12.08" y="13.2">C = 13.59, df = 8, p = 0.093 </tspan></text></svg>